<?xml version="1.0" encoding="UTF-8" standalone="no"?>
<!-- Created with Inkscape (http://www.inkscape.org/) -->

<svg
   xmlns:dc="http://purl.org/dc/elements/1.1/"
   xmlns:cc="http://creativecommons.org/ns#"
   xmlns:rdf="http://www.w3.org/1999/02/22-rdf-syntax-ns#"
   xmlns:svg="http://www.w3.org/2000/svg"
   xmlns="http://www.w3.org/2000/svg"
   version="1.1"
   width="32.568207"
   height="36.914963"
   id="svg14212">
  <defs
     id="defs14214" />
  <metadata
     id="metadata14217">
    <rdf:RDF>
      <cc:Work
         rdf:about="">
        <dc:format>image/svg+xml</dc:format>
        <dc:type
           rdf:resource="http://purl.org/dc/dcmitype/StillImage" />
        <dc:title></dc:title>
      </cc:Work>
    </rdf:RDF>
  </metadata>
  <g
     transform="translate(-375.63401,-585.78128)"
     id="layer1">
    <g
       transform="translate(104.62396,10.594848)"
       id="g13606">
      <path
         d="m 272.75666,608.98195 c -1.0173,-1.28664 -2.0757,-3.80008 -1.6499,-4.28423 1.5453,-1.0735 4.7236,-3.70553 7.0482,-5.67078 l 1.1192,0.0119 c 1.5167,0.88487 2.7356,2.00191 4.0231,3.02096 -1.4197,2.19208 -6.1512,6.70651 -8.9593,7.92832 -0.5,-0.20416 -1.4625,-0.88522 -1.5813,-1.00616 z"
         id="path12980"
         style="fill:#4d4d4d;fill-opacity:1;stroke:none" />
      <path
         d="m 297.79706,575.53239 c -1.393,-0.49455 -3.9714,-0.42646 -4.6699,-10e-4 -0.576,1.83688 -1.8632,5.18989 -3.1596,7.94218 l 0.1323,1.04701 c 1.3141,1.19668 3.1363,2.07753 4.5167,2.86024 1.4134,-1.73438 4.4165,-7.56359 4.7475,-10.63069 -0.395,-0.36358 -1.4164,-1.13954 -1.567,-1.21729 z"
         id="path12982"
         style="fill:#4d4d4d;fill-opacity:1;stroke:none" />
      <path
         d="m 302.81276,580.6922 c 0.3708,1.1875 0.553,2.36298 0.7655,3.54383 -0.4388,9.56629 -7.141,22.52924 -20.9088,27.44884 -1.0879,0.14266 -2.1452,0.44628 -3.2303,0.41416 -0.9186,-0.0272 -1.9496,-0.28191 -2.7091,-0.51187 2.6024,-1.44646 7.6905,-6.32641 8.636,-8.35974 6.4855,-4.47551 9.2838,-9.10964 10.7727,-14.17337 2.1276,-2.34425 4.4953,-7.93677 5.1649,-10.63189 0.5684,0.65631 1.2165,1.41922 1.509,2.27034 0,10e-5 1e-4,-3e-4 1e-4,-3e-4 z"
         id="path12984"
         style="fill:#4d4d4d;fill-opacity:1;stroke:none" />
    </g>
  </g>
</svg>
