<?xml version="1.0" encoding="UTF-8" standalone="no"?>
<!-- Created with Inkscape (http://www.inkscape.org/) -->

<svg
   xmlns:dc="http://purl.org/dc/elements/1.1/"
   xmlns:cc="http://creativecommons.org/ns#"
   xmlns:rdf="http://www.w3.org/1999/02/22-rdf-syntax-ns#"
   xmlns:svg="http://www.w3.org/2000/svg"
   xmlns="http://www.w3.org/2000/svg"
   xmlns:inkscape="http://www.inkscape.org/namespaces/inkscape"
   version="1.1"
   width="25.156591"
   height="35.829185"
   id="svg4026">
  <defs
     id="defs4028">
    <inkscape:path-effect
       effect="spiro"
       id="path-effect15718-3-56" />
    <inkscape:path-effect
       effect="spiro"
       id="path-effect15724-6-7" />
    <inkscape:path-effect
       effect="spiro"
       id="path-effect15726-7-7" />
    <inkscape:path-effect
       effect="spiro"
       id="path-effect15744-5-4" />
    <inkscape:path-effect
       effect="spiro"
       id="path-effect15746-3-0" />
  </defs>
  <metadata
     id="metadata4031">
    <rdf:RDF>
      <cc:Work
         rdf:about="">
        <dc:format>image/svg+xml</dc:format>
        <dc:type
           rdf:resource="http://purl.org/dc/dcmitype/StillImage" />
        <dc:title></dc:title>
      </cc:Work>
    </rdf:RDF>
  </metadata>
  <g
     transform="translate(-241.09941,-496.69463)"
     id="layer1">
    <g
       transform="translate(76.099753,33.180059)"
       id="g13595">
      <path
         d="m 170.28596,476.97632 14.2188,0"
         id="path42649"
         style="fill:#cccccc;fill-opacity:1;stroke:#cccccc;stroke-width:1px;stroke-linecap:square;stroke-linejoin:miter;stroke-opacity:1" />
      <path
         d="m 167.25966,472.02212 c 6.7496,0.022 20.581,0.03 20.581,0.03 0.4626,4e-4 0.8971,0.3554 0.8972,0.8039 l 0.01,24.1957 c 2e-4,0.4488 -0.309,0.8147 -0.7713,0.8161 l -20.6598,0.063 c -0.4625,8e-4 -0.9035,-0.427 -0.8972,-0.8041 0.1137,-6.8264 0.035,-16.7059 0.07,-24.2924 0,-0.354 0.3722,-0.8137 0.7713,-0.8124 z"
         id="path42651"
         style="fill:none;stroke:#cccccc;stroke-width:2.8452816;stroke-miterlimit:4;stroke-opacity:1;stroke-dasharray:none" />
      <path
         d="m 182.95836,467.29182 3.3539,3.2559 -10.0003,10.2738 -4.1518,1.0969 0.723,-4.2486 z"
         id="path42653"
         style="fill:#ffffff;fill-opacity:1;stroke:#cccccc;stroke-width:1.63755262;stroke-miterlimit:4;stroke-opacity:1;stroke-dasharray:none" />
      <path
         d="m 188.29166,469.85582 c 0,0 1.0894,-1.1298 1.5882,-1.6367 0.2826,-0.2872 0.2131,-1.0236 -0.1468,-1.3721 -1.0007,-0.9714 -1.9936,-1.9353 -3.176,-3.0723 -0.1912,-0.1856 -1.111,-0.4074 -1.3841,-0.1275 -0.5066,0.5191 -1.61,1.6303 -1.61,1.6303 z"
         id="path42655"
         style="fill:#cccccc;fill-opacity:1;stroke:none" />
      <path
         d="m 170.28596,480.97632 14.2188,0"
         id="path42657"
         style="fill:#cccccc;fill-opacity:1;stroke:#cccccc;stroke-width:1px;stroke-linecap:square;stroke-linejoin:miter;stroke-opacity:1" />
      <path
         d="m 174.30966,481.97972 0.5231,-2.8426 -2.948,0.597 z"
         id="path42659"
         style="fill:#cccccc;fill-opacity:1;stroke:none" />
      <path
         d="m 170.28596,484.97632 14.2188,0"
         id="path42661"
         style="fill:#cccccc;fill-opacity:1;stroke:#cccccc;stroke-width:1px;stroke-linecap:square;stroke-linejoin:miter;stroke-opacity:1" />
      <path
         d="m 170.28596,488.97632 14.2188,0"
         id="path42663"
         style="fill:#cccccc;fill-opacity:1;stroke:#cccccc;stroke-width:1px;stroke-linecap:square;stroke-linejoin:miter;stroke-opacity:1" />
      <path
         d="m 170.28596,492.97632 14.2188,0"
         id="path42665"
         style="fill:#cccccc;fill-opacity:1;stroke:#cccccc;stroke-width:1px;stroke-linecap:square;stroke-linejoin:miter;stroke-opacity:1" />
    </g>
  </g>
</svg>
