<?xml version="1.0" encoding="UTF-8" standalone="no"?>
<!-- Created with Inkscape (http://www.inkscape.org/) -->

<svg
   xmlns:dc="http://purl.org/dc/elements/1.1/"
   xmlns:cc="http://creativecommons.org/ns#"
   xmlns:rdf="http://www.w3.org/1999/02/22-rdf-syntax-ns#"
   xmlns:svg="http://www.w3.org/2000/svg"
   xmlns="http://www.w3.org/2000/svg"
   version="1.1"
   width="35.376755"
   height="33.799538"
   id="svg13765">
  <defs
     id="defs13767" />
  <metadata
     id="metadata13770">
    <rdf:RDF>
      <cc:Work
         rdf:about="">
        <dc:format>image/svg+xml</dc:format>
        <dc:type
           rdf:resource="http://purl.org/dc/dcmitype/StillImage" />
        <dc:title></dc:title>
      </cc:Work>
    </rdf:RDF>
  </metadata>
  <g
     transform="translate(-354.48192,-424.80329)"
     id="layer1">
    <g
       transform="translate(85.216113,17.540328)"
       id="g13552">
      <path
         d="m 286.96906,415.07002 -12.2842,10.4179 0.03,14.899 c 3e-4,0.1038 0.1576,0.2076 0.3264,0.2102 l 4.0354,0 0,-12.5572 6.8839,0 0,12.5572 13.0556,0 c 0.1689,0 0.2968,-0.1068 0.2968,-0.2102 l 0.03,-14.8388 -12.3733,-10.4781 z"
         id="path12976"
         style="fill:#4d4d4d;fill-opacity:1;stroke:#4d4d4d;stroke-width:0.91483003;stroke-linecap:round;stroke-miterlimit:4;stroke-opacity:1" />
      <path
         d="m 269.28546,421.90322 c -0.2151,0.7967 1.3942,2.8624 1.976,2.8666 0.5459,0 15.8075,-13.1469 15.8075,-13.1469 0,0 15.0691,13.1325 15.7612,13.1469 0.6705,0.014 2.0946,-1.8386 1.7631,-2.7993 -0.2784,-0.8071 -11.0575,-9.5852 -16.7887,-14.3595 -0.5727,-0.4771 -1.3146,-0.4541 -1.8612,0.01 -5.5172,4.6873 -16.4651,13.568 -16.6579,14.2822 z"
         id="path12978"
         style="fill:#4d4d4d;fill-opacity:1;stroke:none" />
    </g>
  </g>
</svg>
