<?xml version="1.0" encoding="UTF-8" standalone="no"?>
<!-- Created with Inkscape (http://www.inkscape.org/) -->

<svg
   xmlns:dc="http://purl.org/dc/elements/1.1/"
   xmlns:cc="http://creativecommons.org/ns#"
   xmlns:rdf="http://www.w3.org/1999/02/22-rdf-syntax-ns#"
   xmlns:svg="http://www.w3.org/2000/svg"
   xmlns="http://www.w3.org/2000/svg"
   version="1.1"
   width="20"
   height="20"
   id="svg33356">
  <defs
     id="defs33358" />
  <metadata
     id="metadata33361">
    <rdf:RDF>
      <cc:Work
         rdf:about="">
        <dc:format>image/svg+xml</dc:format>
        <dc:type
           rdf:resource="http://purl.org/dc/dcmitype/StillImage" />
        <dc:title></dc:title>
      </cc:Work>
    </rdf:RDF>
  </metadata>
  <g
     transform="translate(-337.10577,-727.15673)"
     id="layer1">
    <g
       transform="matrix(0.60179298,0,0,0.60179298,347.13329,-117.84958)"
       id="g33335">
      <path
         d="m -120.91526,1168.6813 a 18.384777,18.384777 0 1 1 -36.76955,0 18.384777,18.384777 0 1 1 36.76955,0 z"
         transform="matrix(0.90384616,0,0,0.90384616,125.86007,364.45676)"
         id="path33182"
         style="fill:#ff0000;fill-opacity:1;stroke:none" />
      <g
         transform="translate(-0.0456954,-2.3098969e-6)"
         id="g33331">
        <path
           d="m -154.25,1112.2372 a 2.125,2.125 0 1 1 -4.25,0 2.125,2.125 0 1 1 4.25,0 z"
           transform="matrix(1.3951479,0,0,1.3951479,218.16622,-121.23387)"
           id="path33188"
           style="fill:#ffffff;fill-opacity:1;stroke:none" />
        <path
           d="m 3.99957,1410.0549 c 2.04348,4.5779 -2.60032,14.4979 -4.00048,14.4979 -1.40016,0 -6.04192,-9.9201 -3.99866,-14.4979 0.60691,-1.3597 2.50963,-1.9913 3.99866,-1.9914 1.48958,-10e-5 3.39331,0.6312 4.00048,1.9914 z"
           id="path33190"
           style="fill:#ffffff;fill-opacity:1;stroke:none" />
      </g>
    </g>
  </g>
</svg>
