<?xml version="1.0" encoding="UTF-8" standalone="no"?>
<!-- Created with Inkscape (http://www.inkscape.org/) -->

<svg
   xmlns:dc="http://purl.org/dc/elements/1.1/"
   xmlns:cc="http://creativecommons.org/ns#"
   xmlns:rdf="http://www.w3.org/1999/02/22-rdf-syntax-ns#"
   xmlns:svg="http://www.w3.org/2000/svg"
   xmlns="http://www.w3.org/2000/svg"
   version="1.1"
   width="35"
   height="35"
   id="svg4201">
  <defs
     id="defs4203" />
  <metadata
     id="metadata4206">
    <rdf:RDF>
      <cc:Work
         rdf:about="">
        <dc:format>image/svg+xml</dc:format>
        <dc:type
           rdf:resource="http://purl.org/dc/dcmitype/StillImage" />
        <dc:title></dc:title>
      </cc:Work>
    </rdf:RDF>
  </metadata>
  <g
     transform="translate(-196.69015,-462.18762)"
     id="layer1">
    <g
       transform="translate(35.815148,56.093871)"
       id="g4180">
      <rect
         width="34.485916"
         height="34.48592"
         x="161.1297"
         y="406.33881"
         id="rect3232"
         style="fill:none;stroke:#ffffff;stroke-width:0.514081;stroke-linecap:square;stroke-miterlimit:4;stroke-opacity:1;stroke-dasharray:none" />
      <g
         transform="matrix(0.96108305,0,0,0.97638427,7.7019071,9.4366167)"
         id="g3899">
        <path
           d="m 159.91296,421.90322 c -0.2151,0.7967 1.3942,2.8624 1.976,2.8666 0.5459,0 15.8075,-13.1469 15.8075,-13.1469 0,0 15.0691,13.1325 15.7612,13.1469 0.6705,0.014 2.0946,-1.8386 1.7631,-2.7993 -0.2784,-0.8071 -11.0575,-9.5852 -16.7887,-14.3595 -0.5727,-0.4771 -1.3146,-0.4541 -1.8612,0.01 -5.5172,4.6873 -16.4651,13.568 -16.6579,14.2822 z"
           id="path42519"
           style="fill:#cdcdcd;fill-opacity:1;stroke:none" />
        <path
           d="m 177.58711,414.46324 -12.73555,10.81584 0,14.91147 c 0,0.80985 0.77669,0.87058 0.90281,0.87058 l 4.41734,0 -0.006,-12.56466 5.97119,0 -0.011,12.56466 13.48498,0 c 0.55738,0 0.80774,-0.34932 0.81077,-0.87665 l 0.003,-14.84268 -12.83783,-10.87856 z"
           id="path3891"
           style="fill:#cdcdcd;fill-opacity:1;stroke:none" />
      </g>
    </g>
  </g>
</svg>
