<?xml version="1.0" encoding="UTF-8" standalone="no"?>
<!-- Created with Inkscape (http://www.inkscape.org/) -->

<svg
   xmlns:dc="http://purl.org/dc/elements/1.1/"
   xmlns:cc="http://creativecommons.org/ns#"
   xmlns:rdf="http://www.w3.org/1999/02/22-rdf-syntax-ns#"
   xmlns:svg="http://www.w3.org/2000/svg"
   xmlns="http://www.w3.org/2000/svg"
   version="1.1"
   width="35"
   height="35"
   id="svg4201">
  <defs
     id="defs4203" />
  <metadata
     id="metadata4206">
    <rdf:RDF>
      <cc:Work
         rdf:about="">
        <dc:format>image/svg+xml</dc:format>
        <dc:type
           rdf:resource="http://purl.org/dc/dcmitype/StillImage" />
        <dc:title></dc:title>
      </cc:Work>
    </rdf:RDF>
  </metadata>
  <g
     transform="translate(-312.78483,-505.63633)"
     id="layer1">
    <g
       transform="translate(152.69108,-183.55117)"
       id="g4138">
      <rect
         width="34.485916"
         height="34.48592"
         x="160.34071"
         y="689.44458"
         id="rect4008"
         style="fill:none;stroke:#ffffff;stroke-width:0.514081;stroke-linecap:square;stroke-miterlimit:4;stroke-opacity:1;stroke-dasharray:none" />
      <g
         transform="matrix(1,0,0,0.95807564,-0.14674681,30.266969)"
         id="g13632">
        <path
           d="m 170.02436,722.54897 15.4121,0"
           id="path4887"
           style="fill:none;stroke:#cdcdcd;stroke-width:2;stroke-linecap:butt;stroke-linejoin:miter;stroke-miterlimit:4;stroke-opacity:1;stroke-dasharray:none" />
        <path
           d="m 177.73036,722.74237 0,-6.8526"
           id="path4889"
           style="fill:none;stroke:#cdcdcd;stroke-width:2;stroke-linecap:butt;stroke-linejoin:miter;stroke-miterlimit:4;stroke-opacity:1;stroke-dasharray:none" />
        <path
           d="m 169.96476,707.11897 c -0.02,6.0713 3.6475,9.0855 7.7655,9.0855 4.1179,0 7.81,-3.072 7.7655,-9.0855"
           id="path5697"
           style="fill:none;stroke:#cdcdcd;stroke-width:2;stroke-linecap:butt;stroke-miterlimit:4;stroke-opacity:1;stroke-dasharray:none" />
        <path
           d="m 177.72006,688.276 c -4.31008,0 -5.53091,4.12006 -5.37323,12.50896 -0.13378,8.23034 1.06315,12.50898 5.37323,12.50898 4.23801,0 5.40385,-4.26842 5.373,-12.50898 0.0307,-8.24054 -1.13499,-12.50896 -5.373,-12.50896 z"
           id="path13630"
           style="fill:#cdcdcd;fill-opacity:1;stroke:none" />
      </g>
    </g>
  </g>
</svg>
