<?xml version="1.0" encoding="UTF-8" standalone="no"?>
<!-- Created with Inkscape (http://www.inkscape.org/) -->

<svg
   xmlns:dc="http://purl.org/dc/elements/1.1/"
   xmlns:cc="http://creativecommons.org/ns#"
   xmlns:rdf="http://www.w3.org/1999/02/22-rdf-syntax-ns#"
   xmlns:svg="http://www.w3.org/2000/svg"
   xmlns="http://www.w3.org/2000/svg"
   version="1.1"
   width="48"
   height="48"
   id="svg3011">
  <defs
     id="defs3013" />
  <metadata
     id="metadata3016">
    <rdf:RDF>
      <cc:Work
         rdf:about="">
        <dc:format>image/svg+xml</dc:format>
        <dc:type
           rdf:resource="http://purl.org/dc/dcmitype/StillImage" />
        <dc:title></dc:title>
      </cc:Work>
    </rdf:RDF>
  </metadata>
  <g
     id="layer1">
    <path
       d="m 20.586804,45.118017 c 7.281486,-5.690481 -6.778699,-8.175288 -2.457502,0.546111 0.943317,1.904109 10.103062,6.646176 10.103062,-7.281485 0,-10.467136 -6.3713,-23.755846 -6.3713,-29.0349234 0,-5.279077 4.186854,-8.1006508 4.186854,-1.0922228 -10e-7,7.0084302 -10.285098,13.0156552 -10.285098,20.2971402 0,12.019913 16.47436,12.20195 16.47436,3.276669 0,-8.28269 -7.705085,-8.537542 -10.194079,-6.462319 -3.552273,2.961745 -2.265088,8.719579 1.91139,9.101857 -6.126642,-7.847621 5.770577,-9.90464 6.553336,-3.276668 0.861036,7.286946 -12.65158,7.492648 -12.65158,-1.365279 0,-7.00843 11.153415,-14.126081 10.649172,-21.0252888 C 27.77727,-1.1541831 21.249237,-4.232067 20.495785,7.8914225 19.966057,16.323383 26.836138,27.008962 27.14014,38.928754 c 0.194781,7.610973 -5.519001,9.620663 -6.553336,6.189263 z"
       id="path1981" />
  </g>
</svg>
