<?xml version="1.0" encoding="UTF-8" standalone="no"?>
<!-- Created with Inkscape (http://www.inkscape.org/) -->

<svg
   xmlns:dc="http://purl.org/dc/elements/1.1/"
   xmlns:cc="http://creativecommons.org/ns#"
   xmlns:rdf="http://www.w3.org/1999/02/22-rdf-syntax-ns#"
   xmlns:svg="http://www.w3.org/2000/svg"
   xmlns="http://www.w3.org/2000/svg"
   xmlns:sodipodi="http://sodipodi.sourceforge.net/DTD/sodipodi-0.dtd"
   xmlns:inkscape="http://www.inkscape.org/namespaces/inkscape"
   width="48px"
   height="48px"
   id="svg4377"
   version="1.1"
   inkscape:version="0.48.4 r9939"
   sodipodi:docname="New document 13">
  <defs
     id="defs4379" />
  <sodipodi:namedview
     id="base"
     pagecolor="#ffffff"
     bordercolor="#666666"
     borderopacity="1.0"
     inkscape:pageopacity="0.0"
     inkscape:pageshadow="2"
     inkscape:zoom="7"
     inkscape:cx="24"
     inkscape:cy="24"
     inkscape:current-layer="layer1"
     showgrid="true"
     inkscape:grid-bbox="true"
     inkscape:document-units="px"
     inkscape:window-width="958"
     inkscape:window-height="1179"
     inkscape:window-x="1600"
     inkscape:window-y="19"
     inkscape:window-maximized="0" />
  <metadata
     id="metadata4382">
    <rdf:RDF>
      <cc:Work
         rdf:about="">
        <dc:format>image/svg+xml</dc:format>
        <dc:type
           rdf:resource="http://purl.org/dc/dcmitype/StillImage" />
        <dc:title></dc:title>
      </cc:Work>
    </rdf:RDF>
  </metadata>
  <g
     id="layer1"
     inkscape:label="Layer 1"
     inkscape:groupmode="layer">
    <g
       id="g12880"
       transform="matrix(1.7575434,0,0,1.5665797,381.75445,-518.27565)">
      <path
         transform="matrix(-0.14121586,0,0,0.14121586,-370.16841,395.56657)"
         d="m -1096.5661,-418.46213 c 0,17.94849 -14.5501,32.49861 -32.4986,32.49861 -17.9485,0 -32.4986,-14.55012 -32.4986,-32.49861 0,-17.94849 14.5501,-32.49861 32.4986,-32.49861 17.9485,0 32.4986,14.55012 32.4986,32.49861 z"
         sodipodi:ry="32.498611"
         sodipodi:rx="32.498611"
         sodipodi:cy="-418.46213"
         sodipodi:cx="-1129.0647"
         id="path12046"
         style="fill:#4d4d4d;fill-opacity:1;fill-rule:nonzero;stroke:none"
         sodipodi:type="arc" />
      <path
         sodipodi:nodetypes="ccssc"
         inkscape:connector-curvature="0"
         id="path12048"
         d="m -217.194,360.3782 c 0,0 12.98113,0 12.94998,0 0,-3.76383 -1.19608,-17.96688 -4.77213,-17.96688 -0.14668,0 -3.36972,0.07 -3.51737,0.07 -3.41756,0 -4.84067,12.5948 -4.66048,17.89697 z"
         style="fill:#4d4d4d;fill-opacity:1;fill-rule:nonzero;stroke:none" />
      <path
         inkscape:connector-curvature="0"
         style="fill:#808080;fill-opacity:1;fill-rule:nonzero;stroke:none"
         d="m -202.62973,333.97631 c -0.69986,0 -1.34484,0.19521 -1.92382,0.50019 0.31547,0.62242 0.50019,1.33218 0.50019,2.07772 0,1.60299 -0.79394,3.02692 -2.03924,3.84764 0.74156,1.14863 1.99397,1.92382 3.46287,1.92382 2.30034,0 4.19393,-1.85511 4.19393,-4.15545 0,-2.30033 -1.89359,-4.19392 -4.19393,-4.19392 z"
         id="path12054" />
      <path
         inkscape:connector-curvature="0"
         style="fill:#808080;fill-opacity:1;fill-rule:nonzero;stroke:none"
         d="m -204.16878,344.16718 c -0.22034,0 -0.41487,0.0748 -0.61563,0.16838 1.59169,2.98173 2.44166,9.14722 2.6164,13.53396 l 5.42517,0 c 0.16355,-4.03485 -1.13073,-13.64626 -4.2324,-13.64626 -0.13401,0 -3.06042,-0.0561 -3.19354,-0.0561 z"
         id="path12056" />
      <path
         id="path12058"
         d="m -194.96262,336.56645 c -0.60067,0 -1.15424,0.16755 -1.65117,0.4293 0.27076,0.53421 0.42931,1.14339 0.42931,1.78327 0,1.3758 -0.68143,2.59793 -1.75024,3.30234 0.63647,0.98584 1.71138,1.65117 2.9721,1.65117 1.97433,0 3.59956,-1.5922 3.59956,-3.56653 0,-1.97432 -1.62523,-3.59955 -3.59956,-3.59955 z"
         style="fill:#b3b3b3;fill-opacity:1;fill-rule:nonzero;stroke:none"
         inkscape:connector-curvature="0" />
      <path
         id="path12060"
         d="m -196.28355,346.10909 c -0.18911,0 -0.35607,0.0477 -0.52838,0.10756 1.36612,1.90408 2.09562,5.84127 2.2456,8.64261 l 4.6563,0 c 0.14037,-2.57662 -0.97048,-8.71436 -3.63258,-8.71436 -0.11501,0 -2.62669,-0.0359 -2.74094,-0.0359 z"
         style="fill:#b3b3b3;fill-opacity:1;fill-rule:nonzero;stroke:none"
         inkscape:connector-curvature="0" />
    </g>
  </g>
</svg>
