<?xml version="1.0" encoding="UTF-8" standalone="no"?>
<!-- Created with Inkscape (http://www.inkscape.org/) -->

<svg
   xmlns:dc="http://purl.org/dc/elements/1.1/"
   xmlns:cc="http://creativecommons.org/ns#"
   xmlns:rdf="http://www.w3.org/1999/02/22-rdf-syntax-ns#"
   xmlns:svg="http://www.w3.org/2000/svg"
   xmlns="http://www.w3.org/2000/svg"
   version="1.1"
   width="48"
   height="48"
   id="svg3611">
  <defs
     id="defs3613" />
  <metadata
     id="metadata3616">
    <rdf:RDF>
      <cc:Work
         rdf:about="">
        <dc:format>image/svg+xml</dc:format>
        <dc:type
           rdf:resource="http://purl.org/dc/dcmitype/StillImage" />
        <dc:title></dc:title>
      </cc:Work>
    </rdf:RDF>
  </metadata>
  <g
     id="layer1">
    <g
       transform="matrix(1.3714286,0,0,1.3714286,732.10371,322.35108)"
       id="g5299">
      <rect
         width="35"
         height="35"
         x="-533.82562"
         y="-235.02652"
         id="rect5239"
         style="fill:#000000;fill-opacity:0;fill-rule:nonzero;stroke:none" />
      <g
         transform="translate(63.384227,-2.7885409)"
         id="g5819">
        <path
           d="m -1096.5661,-418.46213 a 32.498611,32.498611 0 1 1 -64.9972,0 32.498611,32.498611 0 1 1 64.9972,0 z"
           transform="matrix(0.18402886,0,0,0.17680226,-371.92936,-152.42846)"
           id="path3744"
           style="fill:#4d4d4d;fill-opacity:1;fill-rule:nonzero;stroke:none" />
        <path
           d="m -568.90074,-197.31666 c 0,0 -21.69557,0 -21.64349,0 0,-4.63425 1.99902,-22.12189 7.97572,-22.12189 0.24515,0 5.63184,0.0861 5.87863,0.0861 5.71182,0 8.0903,15.50748 7.78914,22.03583 z"
           id="path3746"
           style="fill:#4d4d4d;fill-opacity:1;fill-rule:nonzero;stroke:none" />
      </g>
    </g>
  </g>
</svg>
