<?xml version="1.0" encoding="UTF-8" standalone="no"?>
<!-- Created with Inkscape (http://www.inkscape.org/) -->

<svg
   xmlns:dc="http://purl.org/dc/elements/1.1/"
   xmlns:cc="http://creativecommons.org/ns#"
   xmlns:rdf="http://www.w3.org/1999/02/22-rdf-syntax-ns#"
   xmlns:svg="http://www.w3.org/2000/svg"
   xmlns="http://www.w3.org/2000/svg"
   version="1.1"
   width="48"
   height="48"
   id="svg3924">
  <defs
     id="defs3926" />
  <metadata
     id="metadata3929">
    <rdf:RDF>
      <cc:Work
         rdf:about="">
        <dc:format>image/svg+xml</dc:format>
        <dc:type
           rdf:resource="http://purl.org/dc/dcmitype/StillImage" />
        <dc:title></dc:title>
      </cc:Work>
    </rdf:RDF>
  </metadata>
  <g
     id="layer1">
    <g
       transform="matrix(1.3918725,0,0,1.3918724,-639.77965,-704.91019)"
       id="g18471">
      <rect
         width="34.485916"
         height="34.48592"
         x="459.6539"
         y="506.44742"
         id="rect18473"
         style="fill:none;stroke:none" />
      <g
         transform="matrix(1.0662157,0,0,1.0343005,-30.353399,-17.59987)"
         id="g18475">
        <g
           transform="matrix(-0.47457306,-0.41906526,0.39323926,-0.46842542,326.16486,867.71495)"
           id="g18477"
           style="fill:#4d4d4d;fill-opacity:1;stroke:#4d4d4d;stroke-width:0.51221758">
          <path
             d="m 163.38416,608.98195 c -1.0173,-1.28664 -2.0757,-3.80008 -1.6499,-4.28423 1.5453,-1.0735 4.7236,-3.70553 7.0482,-5.67078 l 1.1192,0.0119 c 1.5167,0.88487 2.7356,2.00191 4.0231,3.02096 -1.4197,2.19208 -6.1512,6.70651 -8.9593,7.92832 -0.5,-0.20416 -1.4625,-0.88522 -1.5813,-1.00616 z"
             id="path18479"
             style="fill:#4d4d4d;fill-opacity:1;stroke:#4d4d4d;stroke-width:0.51221758" />
          <path
             d="m 188.42456,575.53239 c -1.393,-0.49455 -3.9714,-0.42646 -4.6699,-10e-4 -0.576,1.83688 -1.8632,5.18989 -3.1596,7.94218 l 0.1323,1.04701 c 1.3141,1.19668 3.1363,2.07753 4.5167,2.86024 1.4134,-1.73438 4.4165,-7.56359 4.7475,-10.63069 -0.395,-0.36358 -1.4164,-1.13954 -1.567,-1.21729 z"
             id="path18481"
             style="fill:#4d4d4d;fill-opacity:1;stroke:#4d4d4d;stroke-width:0.51221758" />
          <path
             d="m 193.44026,580.6922 c 0.3708,1.1875 0.553,2.36298 0.7655,3.54383 -0.4388,9.56629 -7.141,22.52924 -20.9088,27.44884 -1.0879,0.14266 -2.1452,0.44628 -3.2303,0.41416 -0.9186,-0.0272 -1.9496,-0.28191 -2.7091,-0.51187 2.6024,-1.44646 7.6905,-6.32641 8.636,-8.35974 6.4855,-4.47551 9.2838,-9.10964 10.7727,-14.17337 2.1276,-2.34425 4.4953,-7.93677 5.1649,-10.63189 0.5684,0.65631 1.2165,1.41922 1.509,2.27034 0,10e-5 1e-4,-3e-4 1e-4,-3e-4 z"
             id="path18483"
             style="fill:#4d4d4d;fill-opacity:1;stroke:#4d4d4d;stroke-width:0.51221758" />
        </g>
        <g
           transform="matrix(1.1326706,0,0,1.1325958,-64.038103,-67.665011)"
           id="g18485">
          <path
             d="m 469.76714,520.42499 c 3.91757,6.98348 -4.25822,13.62631 -4.25822,13.62631"
             id="path18487"
             style="fill:none;stroke:#4d4d4d;stroke-width:0.82839704px;stroke-linecap:butt;stroke-linejoin:miter;stroke-opacity:1" />
          <path
             d="m 451.53231,524.892 -2.14935,-0.38502 -2.14934,-0.38503 1.40811,-1.66887 1.40811,-1.66888 0.74123,2.0539 z"
             transform="matrix(-0.18671402,0.98241431,-0.98241431,-0.18671402,1062.6981,190.70378)"
             id="path18489"
             style="fill:#4d4d4d;fill-opacity:1;stroke:none" />
        </g>
        <g
           transform="matrix(1.1326706,0,0,1.1325958,-64.038103,-67.665011)"
           id="g18491">
          <path
             d="m 483.35437,516.67499 c -3.91757,6.98348 4.25822,13.62631 4.25822,13.62631"
             id="path18493"
             style="fill:none;stroke:#4d4d4d;stroke-width:0.82839704px;stroke-linecap:butt;stroke-linejoin:miter;stroke-opacity:1" />
          <path
             d="m 451.53231,524.892 -2.14935,-0.38502 -2.14934,-0.38503 1.40811,-1.66887 1.40811,-1.66888 0.74123,2.0539 z"
             transform="matrix(0.18671402,0.98241431,0.98241431,-0.18671402,-109.57659,186.95378)"
             id="path18495"
             style="fill:#4d4d4d;fill-opacity:1;stroke:none" />
        </g>
        <g
           transform="matrix(1.1326706,0,0,1.1325958,-64.038103,-67.665011)"
           id="g18497">
          <path
             d="m 470.78125,519.04968 c 5.28125,5.46875 5.34375,13.15625 5.34375,13.15625"
             id="path18499"
             style="fill:none;stroke:#4d4d4d;stroke-width:0.82839704px;stroke-linecap:butt;stroke-linejoin:miter;stroke-opacity:1" />
          <path
             d="m 451.53231,524.892 -2.14935,-0.38502 -2.14934,-0.38503 1.40811,-1.66887 1.40811,-1.66888 0.74123,2.0539 z"
             transform="matrix(-0.64363252,0.76533469,0.76533469,0.64363252,365.00379,-147.51201)"
             id="path18501"
             style="fill:#4d4d4d;fill-opacity:1;stroke:none" />
        </g>
      </g>
    </g>
  </g>
</svg>
