<?xml version="1.0" encoding="UTF-8" standalone="no"?>
<!-- Created with Inkscape (http://www.inkscape.org/) -->

<svg
   xmlns:dc="http://purl.org/dc/elements/1.1/"
   xmlns:cc="http://creativecommons.org/ns#"
   xmlns:rdf="http://www.w3.org/1999/02/22-rdf-syntax-ns#"
   xmlns:svg="http://www.w3.org/2000/svg"
   xmlns="http://www.w3.org/2000/svg"
   version="1.1"
   width="48"
   height="48"
   id="svg3521">
  <defs
     id="defs3523" />
  <metadata
     id="metadata3526">
    <rdf:RDF>
      <cc:Work
         rdf:about="">
        <dc:format>image/svg+xml</dc:format>
        <dc:type
           rdf:resource="http://purl.org/dc/dcmitype/StillImage" />
        <dc:title></dc:title>
      </cc:Work>
    </rdf:RDF>
  </metadata>
  <g
     id="layer1">
    <g
       transform="matrix(1.3755102,0,0,1.3755102,733.8115,395.82142)"
       id="g4652">
      <rect
         width="34.875"
         height="34.874992"
         x="-533.36871"
         y="-287.75278"
         id="rect5084"
         style="fill:#ffffff;fill-opacity:0;fill-rule:nonzero;stroke:#ffffff;stroke-width:0.1;stroke-linecap:square;stroke-linejoin:miter;stroke-miterlimit:4;stroke-opacity:1;stroke-dasharray:none;stroke-dashoffset:126.1600029" />
      <g
         transform="translate(111.26532,-41.966107)"
         id="g5928">
        <path
           d="m -1096.5661,-418.46213 a 32.498611,32.498611 0 1 1 -64.9972,0 32.498611,32.498611 0 1 1 64.9972,0 z"
           transform="matrix(0.14121586,0,0,0.14121586,-464.33923,-178.91363)"
           id="path5833"
           style="fill:#4d4d4d;fill-opacity:1;fill-rule:nonzero;stroke:none" />
        <path
           d="m -617.31364,-214.102 c 0,0 -12.98113,0 -12.94998,0 0,-3.76383 1.19608,-17.96688 4.77213,-17.96688 0.14668,0 3.36972,0.07 3.51737,0.07 3.41756,0 4.84067,12.5948 4.66048,17.89697 z"
           id="path5835"
           style="fill:#4d4d4d;fill-opacity:1;fill-rule:nonzero;stroke:none" />
        <path
           d="m -615.68428,-240.50389 c -0.69986,0 -1.34484,0.19521 -1.92382,0.50019 0.31547,0.62242 0.50019,1.33218 0.50019,2.07772 0,1.60299 -0.79394,3.02692 -2.03924,3.84764 0.74156,1.14863 1.99397,1.92382 3.46287,1.92382 2.30034,0 4.19393,-1.85511 4.19393,-4.15545 0,-2.30033 -1.89359,-4.19392 -4.19393,-4.19392 z"
           id="path5839"
           style="fill:#4d4d4d;fill-opacity:1;fill-rule:nonzero;stroke:none" />
        <path
           d="m -617.22333,-230.31302 c -0.22034,0 -0.41487,0.0748 -0.61563,0.16838 1.59169,2.98173 2.44166,9.14722 2.6164,13.53396 l 5.42517,0 c 0.16355,-4.03485 -1.13073,-13.64626 -4.2324,-13.64626 -0.13401,0 -3.06042,-0.0561 -3.19354,-0.0561 z"
           id="path5841"
           style="fill:#4d4d4d;fill-opacity:1;fill-rule:nonzero;stroke:none" />
        <path
           d="m -631.87791,-240.50389 c 0.69986,0 1.34484,0.19521 1.92382,0.50019 -0.31547,0.62242 -0.50019,1.33218 -0.50019,2.07772 0,1.60299 0.79394,3.02692 2.03924,3.84764 -0.74156,1.14863 -1.99397,1.92382 -3.46287,1.92382 -2.30034,0 -4.19393,-1.85511 -4.19393,-4.15545 0,-2.30033 1.89359,-4.19392 4.19393,-4.19392 z"
           id="path5845"
           style="fill:#4d4d4d;fill-opacity:1;fill-rule:nonzero;stroke:none" />
        <path
           d="m -630.33886,-230.31302 c 0.22034,0 0.41487,0.0748 0.61563,0.16838 -1.59169,2.98173 -2.44166,9.14722 -2.6164,13.53396 l -5.42517,0 c -0.16355,-4.03485 1.13073,-13.64626 4.2324,-13.64626 0.13401,0 3.06042,-0.0561 3.19354,-0.0561 z"
           id="path5847"
           style="fill:#4d4d4d;fill-opacity:1;fill-rule:nonzero;stroke:none" />
        <path
           d="m -639.54502,-237.91375 c 0.60067,0 1.15424,0.16755 1.65117,0.4293 -0.27076,0.53421 -0.42931,1.14339 -0.42931,1.78327 0,1.3758 0.68143,2.59793 1.75024,3.30234 -0.63647,0.98584 -1.71138,1.65117 -2.9721,1.65117 -1.97433,0 -3.59956,-1.5922 -3.59956,-3.56653 0,-1.97432 1.62523,-3.59955 3.59956,-3.59955 z"
           id="path5851"
           style="fill:#4d4d4d;fill-opacity:1;fill-rule:nonzero;stroke:none" />
        <path
           d="m -638.22409,-228.37111 c 0.18911,0 0.35607,0.0477 0.52838,0.10756 -1.36612,1.90408 -2.09562,5.84127 -2.2456,8.64261 l -4.6563,0 c -0.14037,-2.57662 0.97048,-8.71436 3.63258,-8.71436 0.11501,0 2.62669,-0.0359 2.74094,-0.0359 z"
           id="path5853"
           style="fill:#4d4d4d;fill-opacity:1;fill-rule:nonzero;stroke:none" />
      </g>
    </g>
  </g>
</svg>
